pedal_clip_forces_x_-0.09_y_-0.04.mot
version=1
nRows=251
nColumns=4
inDegrees=yes
endheader
time	PedalClip_calcn_r_Fx	PedalClip_calcn_r_Fy	PedalClip_calcn_r_Fz
0.84100962	-5.30245970828826	31.7857656374817	0
0.84127587	-5.39166829688673	31.8605991497124	0
0.84168157	-5.48073625640878	31.9358584584135	0
0.84172398	-5.56968759396557	32.0115625218564	0
0.84187129	-5.65852899849563	32.0877349302237	0
0.84221868	-5.74737425709575	32.1643928600174	0
0.84234126	-5.83640308934324	32.241540115569	0
0.84260398	-5.92577406616117	32.3191675990711	0
0.84300271	-6.01555584434449	32.3972737673432	0
0.84304639	-6.10577200704676	32.4758715282306	0
0.84319124	-6.19646070871183	32.5549811711185	0
0.84353948	-6.28777662727723	32.6346211290552	0
0.84366349	-6.37990071132135	32.7147992145753	0
0.84392274	-6.47294418068128	32.7955111335193	0
0.84431499	-6.56690447448269	32.8767569665081	0
0.84435982	-6.66176311551384	32.9585496656456	0
0.84450245	-6.75754175600879	33.0409089403426	0
0.84485143	-6.8543441366263	33.1238536002063	0
0.84497729	-6.95226315273162	33.2073924893832	0
0.84523377	-7.05131368834935	33.2915211171572	0
0.84561972	-7.15142100840119	33.3762350744146	0
0.84566575	-7.25253295757315	33.4615410606635	0
0.84580622	-7.35464986363747	33.5474537938043	0
0.84615661	-7.45782231706084	33.6339900702209	0
0.84628529	-7.56208096114873	33.7211587436964	0
0.84653998	-7.6673994972957	33.8089558742163	0
0.84691969	-7.77370102882754	33.8973752232905	0
0.84696703	-7.88095200605968	33.986420187909	0
0.84710536	-7.98915830912136	34.0761018755621	0
0.8474579	-8.09833212337963	34.1664345234673	0
0.84759043	-8.20845251508832	34.2574256380846	0
0.84784454	-8.31945723642315	34.3490703735606	0
0.84821798	-8.43126704457852	34.4413601715495	0
0.84826673	-8.5438440800727	34.534295077917	0
0.84840293	-8.65715228752469	34.6278828979274	0
0.84875851	-8.77111601082535	34.7221354260889	0
0.84889601	-8.88563225809718	34.8170589869102	0
0.849151	-9.00060812073299	34.9126485870685	0
0.84951786	-9.1160021077196	35.0088950992988	0
0.84956821	-9.23181813720907	35.105797149959	0
0.84970222	-9.34803729974495	35.2033606581429	0
0.85006166	-9.46460673297825	35.3015956260536	0
0.85020503	-9.58148305392332	35.4005073901163	0
0.85046318	-9.6986645809925	35.5000908582029	0
0.85082307	-9.81620383621946	35.600336556153	0
0.85087501	-9.93416232712582	35.7012418642846	0
0.8510068	-10.0525559469504	35.8028108508878	0
0.85136967	-10.1713756786713	35.905051503755	0
0.8515151	-10.2906122148267	36.0079674392006	0
0.85177654	-10.4102689915527	36.1115522992889	0
0.8521312	-10.5303689681769	36.2157949584993	0
0.85218393	-10.6509364358782	36.3206903707655	0
0.85231417	-10.7719715443871	36.4262399901104	0
0.85267761	-10.8934629416563	36.5324499410674	0
0.85281998	-11.0153952983894	36.6393234422738	0
0.85307991	-11.13775484484	36.7468547884072	0
0.85343137	-11.2605265143464	36.8550329023907	0
0.85348426	-11.3836956252827	36.9638511674104	0
0.85361358	-11.5072485697596	37.0733100431659	0
0.8539761	-11.6311744923144	37.1834236123287	0
0.8541157	-11.7554680206604	37.2942110613095	0
0.85437382	-11.8801312137487	37.4056790351558	0
0.85472267	-12.0051586218813	37.5178191859092	0
0.85477548	-12.1305483734836	37.6306191454883	0
0.85490409	-12.256317630545	37.744065639116	0
0.8552649	-12.3824816465769	37.8581451051304	0
0.85540206	-12.5090519852244	37.9728382116402	0
0.85565832	-12.6360418054356	38.0881173040212	0
0.85600512	-12.7634461369993	38.2039546958036	0
0.8560576	-12.8912548691418	38.3203310254861	0
0.85618568	-13.0194652789955	38.4372336709295	0
0.85654371	-13.1480712590117	38.5546556775664	0
0.85667868	-13.2770658642698	38.6725907457216	0
0.85693289	-13.406451298139	38.7910253841936	0
0.85727825	-13.5362135616699	38.9099468150858	0
0.85733006	-13.6663325114025	39.0293486590441	0
0.85745785	-13.796788523494	39.1492246428556	0
0.85781162	-13.9275589321417	39.2695580737663	0
0.85794452	-14.0586242556303	39.3903230088813	0
0.85819632	-14.1899849165735	39.5114905375588	0
0.85854085	-14.3216309346665	39.6330466150437	0
0.85859161	-14.4535495536501	39.754993337009	0
0.85871937	-14.5857234213938	39.877339335953	0
0.85906686	-14.7180936877775	40.0000909316667	0
0.85919771	-14.8505315297875	40.1232434663071	0
0.85944644	-14.9828769070037	40.2467864345786	0
0.85979074	-15.1149995286579	40.3707093279362	0
0.85983997	-15.2469440275125	40.4950172626893	0
0.85996797	-15.378902367381	40.6197230513479	0
0.86030653	-15.5111054594204	40.7448305423754	0
0.86043538	-15.6437260479755	40.8703367471384	0
0.86067988	-15.7768944172334	40.9962377592123	0
0.86102431	-15.9106884225621	41.122523809049	0
0.86107154	-16.0451473548313	41.2491736340807	0
0.86120007	-16.1802788007547	41.3761494817528	0
0.86152649	-16.3160979970748	41.5034369991467	0
0.8616539	-16.4526001970929	41.6310514766584	0
0.86189275	-16.5897659919219	41.759013798259	0
0.86223731	-16.7275563075385	41.8873016847167	0
0.86228218	-16.8659283989309	42.0158626578553	0
0.86241143	-17.0048399622119	42.1446282257455	0
0.86272256	-17.144245365007	42.2735247296061	0
0.86284249	-17.2840894760203	42.4025054055412	0
0.86307254	-17.4243636031358	42.5315945182803	0
0.86342485	-17.5651161161004	42.6608752055982	0
0.86346038	-17.7064187121085	42.7904620808312	0
0.8635958	-17.8483321090439	42.9204635406709	0
0.86385659	-17.9908592118878	43.0509316699658	0
0.86394086	-18.1339490964643	43.1818807480373	0
0.86416511	-18.2775801085188	43.3133187965165	0
0.8644819	-18.4218205369915	43.4452945281149	0
0.86453802	-18.5667838999569	43.5778978528839	0
0.86465761	-18.7125909500645	43.7112413596786	0
0.8650184	-18.8593604347669	43.8454363491943	0
0.86514849	-19.0072020315643	43.9805812689574	0
0.86539146	-19.1562671674322	44.1167501594663	0
0.86575126	-19.3067303107199	44.2539723312938	0
0.86578724	-19.4587167141183	44.3922844885601	0
0.8659208	-19.6122645245342	44.5317712126155	0
0.86618088	-19.7673175390311	44.6725853468483	0
0.86626843	-19.9237515417278	44.8149067232577	0
0.86648499	-20.0814571274939	44.9588686239484	0
0.86680358	-20.2403715734971	45.1045121441368	0
0.86685659	-20.4004711780865	45.2518511923672	0
0.86697686	-20.5617521382823	45.4009357334397	0
0.8673207	-20.7241947457243	45.5518705395801	0
0.86744625	-20.8877430013142	45.7047519931688	0
0.86768846	-21.0523449217	45.8596161703605	0
0.86812091	-21.2179581563349	46.0164146160682	0
0.86816416	-21.3845596897193	46.1750975983076	0
0.86826649	-21.5522029703707	46.3357013600105	0
0.86845393	-21.7209875964444	46.498349604495	0
0.8686505	-21.8909740419201	46.6631587207752	0
0.86874879	-22.062142500179	46.8301467422921	0
0.86900304	-22.2344041357702	46.9992279409666	0
0.86943737	-22.4076502864136	47.1703065057332	0
0.8694808	-22.5818347654265	47.3433642243547	0
0.86952424	-22.7570058536231	47.5184876180692	0
0.8697414	-22.933247617722	47.6957964483498	0
0.86984999	-23.110631454778	47.8753867262412	0
0.87016582	-23.2891523857715	48.057304527468	0
0.87038896	-23.4687199399543	48.2415633449673	0
0.87078558	-23.6491755239818	48.4281310031508	0
0.87124498	-23.8303308449475	48.6169001019734	0
0.87129092	-24.0120226335116	48.8076749739654	0
0.8714166	-24.1941305974244	49.000197533073	0
0.87174305	-24.3765278188936	49.1942024523584	0
0.87185989	-24.5590934133673	49.3894496767313	0
0.87209827	-24.7417278088584	49.585721221142	0
0.87251319	-24.9243664173829	49.7827905398106	0
0.87274017	-25.1070159055825	49.980459724138	0
0.87314331	-25.2897329686017	50.1786403609917	0
0.87354992	-25.4724838492221	50.3773484242176	0
0.87359058	-25.6551697151176	50.5766195772137	0
0.87370681	-25.837678117992	50.7764402062335	0
0.87393213	-26.01992508701	50.9767279661197	0
0.87402093	-26.2019001531056	51.1773941386786	0
0.87422645	-26.3836598985429	51.3784032461589	0
0.87450529	-26.5651492111234	51.5797889115861	0
0.8745635	-26.7462682147781	51.781577839914	0
0.87467352	-26.9269240491484	51.9837213071894	0
0.87502509	-27.1070485265378	52.1860550811398	0
0.87516099	-27.2866198892335	52.3883807010333	0
0.87538197	-27.4656442757727	52.5905348341302	0
0.87577204	-27.6440552521528	52.7924290666593	0
0.87599992	-27.8217981961079	52.993976265473	0
0.87631955	-27.9989045036663	53.1950664494823	0
0.87652092	-28.1754785242403	53.3955933833552	0
0.87689098	-28.3516633696294	53.5955283822355	0
0.87692799	-28.5276003614301	53.7949444532613	0
0.87705321	-28.7033731398763	53.9940001319893	0
0.87730414	-28.8790350915292	54.1928453883851	0
0.8773975	-29.0546216996971	54.3915734160914	0
0.87759992	-29.23013915545	54.5902003340613	0
0.87791594	-29.4055281472958	54.7886778826474	0
0.87825637	-29.580698619904	54.9869465005234	0
0.87829041	-29.7555955498031	55.18499038118	0
0.87841549	-29.9302158037084	55.382849615925	0
0.87864727	-30.1045972589923	55.5805926158054	0
0.87872373	-30.2787921223524	55.7782848461568	0
0.87892388	-30.4528113152347	55.9759602585888	0
0.87929297	-30.6266475632644	56.1736460873048	0
0.87932987	-30.8003037172833	56.3713851379931	0
0.87942887	-30.9738296959089	56.5692587108902	0
0.87963033	-31.1473282710793	56.7673940094639	0
0.87978222	-31.320963894618	56.9659788026004	0
0.87986406	-31.4949525017195	57.1652629968345	0
0.88008587	-31.6695160552287	57.3655132379249	0
0.88029989	-31.844832944963	57.5669556545558	0
0.88050895	-32.0210038007553	57.7697280793871	0
0.88072053	-32.1980670401959	57.9738974643648	0
0.88092708	-32.3760093338547	58.1794796512883	0
0.88114037	-32.554789929345	58.3864641921419	0
0.88134419	-32.7343709950121	58.59484952923	0
0.88156273	-32.9147357452664	58.8046626061709	0
0.88176366	-33.0958699560868	59.0159244179233	0
0.88199753	-33.2777408004661	59.2286195757365	0
0.88219555	-33.4602806030553	59.4426806394082	0
0.88254563	-33.6434140312351	59.6580306389423	0
0.88258847	-33.8270833115284	59.8746087006305	0
0.8826313	-34.0112667029736	60.092382218526	0
0.88284548	-34.1959722569619	60.3113430489591	0
0.88309545	-34.3812385559289	60.5315147480241	0
0.88314958	-34.5671244361626	60.7529332094529	0
0.88325227	-34.7536967672162	60.9756283395073	0
0.88354217	-34.941007568021	61.1996024555668	0
0.88365664	-35.1290718477902	61.4248148142195	0
0.88387383	-35.3179059411238	61.6512344955433	0
0.88409789	-35.5075572357212	61.8788724322399	0
0.8842937	-35.6980902540289	62.1077804405331	0
0.88451791	-35.8895445611301	62.3380113889747	0
0.88471369	-36.0819082471746	62.5695905223714	0
0.88499623	-36.2751190785064	62.8025044420406	0
0.88518812	-36.469133442686	63.0367526877735	0
0.88553293	-36.6639540197757	63.2723692803498	0
0.88607124	-36.8596282956726	63.509424541126	0
0.88616427	-37.0562147507187	63.7480028915508	0
0.88637853	-37.2537675248246	63.9881911480824	0
0.88659278	-37.452328667043	64.2300657680749	0
0.88680703	-37.6519264492165	64.4736832563725	0
0.8868574	-37.8525748101125	64.7190773354783	0
0.88695088	-38.0542758732885	64.9662595921551	0
0.88715076	-38.2570225301518	65.2152229111717	0
0.88723294	-38.4608011068211	65.4659541822048	0
0.88742584	-38.6655915499015	65.7184364840754	0
0.8876715	-38.8713680837532	65.9726451252731	0
0.8877246	-39.0781026969351	66.228541303006	0
0.88782586	-39.2857682784477	66.4860807024215	0
0.8881117	-39.4943407878165	66.7452183794975	0
0.88822321	-39.7038016081958	67.0059137560981	0
0.88843926	-39.9141333450031	67.2681314749364	0
0.88863969	-40.1253147304352	67.5318355425513	0
0.88883273	-40.3373134845058	67.7969749278196	0
0.88902899	-40.5500868867376	68.0634840962235	0
0.88922201	-40.7635814079909	68.3312829002144	0
0.88941791	-40.977735767869	68.6002808894811	0
0.88961033	-41.1924874251733	68.8703877624329	0
0.88980584	-41.4077712585999	69.1415128811904	0
0.88999771	-41.623524362563	69.4135693647463	0
0.89019283	-41.8396908319134	69.6864791848107	0
0.89038417	-42.0562250054469	69.9601770516777	0
0.89057889	-42.2730943430461	70.2346143465195	0
0.89076973	-42.4902808396328	70.5097616812332	0
0.89096403	-42.7077811410929	70.7856101690584	0
0.89115438	-42.9256048975945	71.0621708786396	0
0.89134825	-43.1437715502815	71.339471847019	0
0.89153813	-43.3623046159375	71.6175522767513	0
0.89173154	-43.5812246745403	71.8964522784646	0
0.89192131	-43.8005388532176	72.176196095542	0
0.89211371	-44.020239816671	72.4567798358383	0
0.89230275	-44.2403206139943	72.7381945465747	0
